<svg width="130" height="40" viewBox="0 0 130 40" fill="none" xmlns="http://www.w3.org/2000/svg">
<path d="M25.709 30.5831C25.2718 30.8746 24.6768 31.2025 23.9238 31.5669C23.1709 31.9312 22.2843 32.247 21.2642 32.5142C20.2683 32.7571 19.1753 32.8665 17.9852 32.8422C15.9206 32.8179 14.0746 32.4535 12.4473 31.749C10.8199 31.0446 9.4233 30.0851 8.25743 28.8705C7.11585 27.6316 6.24145 26.2227 5.63422 24.6438C5.027 23.0648 4.72339 21.3766 4.72339 19.579C4.72339 17.6114 5.03914 15.8017 5.67066 14.1499C6.32646 12.4737 7.2373 11.0284 8.40317 9.81382C9.56904 8.57496 10.9414 7.61544 12.5201 6.93528C14.1232 6.25512 15.872 5.91504 17.7666 5.91504C19.3453 5.91504 20.7784 6.13366 22.0657 6.57091C23.353 6.98386 24.4582 7.46969 25.3811 8.0284L23.9602 11.3442C23.2316 10.8584 22.345 10.3968 21.3006 9.95957C20.2562 9.52233 19.1146 9.3037 17.8759 9.3037C16.5885 9.3037 15.3741 9.57091 14.2325 10.1053C13.0909 10.6154 12.0829 11.332 11.2085 12.2551C10.3341 13.1539 9.6419 14.2227 9.13183 15.4616C8.64606 16.6762 8.40317 17.9879 8.40317 19.3968C8.40317 21.2916 8.79179 23.0041 9.56903 24.5345C10.3706 26.0405 11.4879 27.2308 12.9209 28.1053C14.3782 28.9798 16.0785 29.4171 18.0216 29.4171C19.3818 29.4171 20.5719 29.2227 21.5921 28.8341C22.6365 28.4211 23.4988 27.9474 24.1788 27.413L25.709 30.5831Z" fill="white"/>
<path d="M30.8219 17.4656H34.2102V32.5507H30.8219V17.4656ZM30.5669 12.0365C30.5669 11.4778 30.7733 11.0284 31.1863 10.6883C31.6235 10.3239 32.0971 10.1418 32.6072 10.1418C33.1172 10.1418 33.5787 10.3239 33.9916 10.6883C34.4045 11.0284 34.611 11.4778 34.611 12.0365C34.611 12.5952 34.4045 13.0567 33.9916 13.4211C33.5787 13.7612 33.1172 13.9312 32.6072 13.9312C32.0971 13.9312 31.6235 13.7612 31.1863 13.4211C30.7733 13.0567 30.5669 12.5952 30.5669 12.0365Z" fill="white"/>
<path d="M43.1686 17.4656L43.3872 20.3806C43.8973 19.3118 44.6866 18.4616 45.7554 17.83C46.8241 17.1984 48.0628 16.8826 49.4716 16.8826C50.8803 16.8826 52.0341 17.3077 52.9328 18.158C53.8557 18.9839 54.3415 20.0648 54.3901 21.4009V32.5507H50.9653V22.5669C50.9168 21.7652 50.6617 21.1094 50.2002 20.5992C49.763 20.0891 49.0708 19.8219 48.1235 19.7976C46.8119 19.7976 45.7068 20.332 44.8081 21.4009C43.9337 22.4454 43.4965 23.8057 43.4965 25.4818V32.5507H40.1082V17.4656H43.1686Z" fill="white"/>
<path d="M67.2414 32.915C65.5412 32.915 64.0596 32.575 62.7965 31.8948C61.5578 31.1903 60.5984 30.2308 59.9183 29.0163C59.2625 27.8017 58.9346 26.4292 58.9346 24.8988C58.9346 23.4171 59.2989 22.0689 60.0276 20.8543C60.7805 19.6154 61.7885 18.6438 63.0516 17.9393C64.3389 17.2106 65.7598 16.8462 67.3143 16.8462C69.306 16.8462 70.9576 17.4292 72.2692 18.5952C73.5808 19.7612 74.4795 21.3644 74.9653 23.4049L63.0151 27.5952C63.428 28.3482 64.011 28.9434 64.7639 29.3806C65.5169 29.7936 66.367 30.0001 67.3143 30.0001C67.9944 30.0001 68.638 29.8786 69.2453 29.6357C69.8525 29.3928 70.4354 29.077 70.9941 28.6883L72.5607 31.2025C71.7834 31.7126 70.9212 32.1256 69.9739 32.4414C69.0509 32.7571 68.1401 32.915 67.2414 32.915ZM62.2865 24.7167C62.2622 25.0082 62.2743 25.2875 62.3229 25.5547L71.1034 22.3118C70.7633 21.5831 70.2654 20.9393 69.6096 20.3806C68.9781 19.8219 68.128 19.5426 67.0592 19.5426C65.6748 19.5426 64.5332 20.0284 63.6345 21.0001C62.7358 21.9717 62.2865 23.2106 62.2865 24.7167Z" fill="white"/>
<path d="M82.2349 17.4656L82.4535 20.3442C83.0364 19.2511 83.8258 18.4009 84.8217 17.7936C85.8418 17.162 87.0077 16.8462 88.3193 16.8462C89.558 16.8462 90.5903 17.1377 91.4161 17.7207C92.2662 18.3037 92.7885 19.0932 92.9828 20.0891C93.59 19.0689 94.3794 18.2794 95.3509 17.7207C96.3468 17.1377 97.4034 16.8462 98.5207 16.8462C99.978 16.8462 101.132 17.2713 101.982 18.1215C102.856 18.9717 103.318 20.0527 103.366 21.3644V32.5507H99.978V22.6397C99.9294 21.8624 99.7229 21.2187 99.3586 20.7086C99.0186 20.1741 98.4235 19.8826 97.5734 19.8341C96.6747 19.8341 95.8853 20.1013 95.2052 20.6357C94.5251 21.1458 93.9908 21.826 93.6021 22.6762C93.2135 23.5264 93.0071 24.4252 92.9828 25.3725V32.5507H89.558V22.6397C89.5337 21.8624 89.3273 21.2187 88.9387 20.7086C88.5743 20.1741 87.955 19.8826 87.0806 19.8341C86.2062 19.8341 85.4289 20.1013 84.7488 20.6357C84.0687 21.1458 83.5344 21.826 83.1457 22.6762C82.7571 23.5264 82.5628 24.4373 82.5628 25.409V32.5507H79.1745V17.4656H82.2349Z" fill="white"/>
<path d="M115.542 32.915C114.109 32.915 112.81 32.6114 111.644 32.0041C110.502 31.3968 109.591 30.5102 108.911 29.3442C108.255 28.1539 107.928 26.7086 107.928 25.0082C107.928 23.3078 108.268 21.8503 108.948 20.6357C109.652 19.4211 110.587 18.4859 111.753 17.83C112.943 17.1741 114.243 16.8462 115.651 16.8462C117.012 16.8462 118.165 17.1377 119.113 17.7207C120.06 18.3037 120.801 19.0082 121.335 19.8341L121.59 17.4656H124.723V32.5507H121.335V30.0729C121.044 30.4616 120.619 30.8746 120.06 31.3118C119.526 31.749 118.87 32.1256 118.093 32.4414C117.34 32.7571 116.489 32.915 115.542 32.915ZM116.453 30.1094C117.692 30.1094 118.748 29.7693 119.623 29.0891C120.497 28.3847 121.068 27.4373 121.335 26.247V23.2592C121.044 22.2146 120.436 21.3523 119.513 20.6721C118.59 19.992 117.534 19.6519 116.344 19.6519C115.421 19.6519 114.583 19.8705 113.83 20.3077C113.077 20.745 112.47 21.3523 112.008 22.1296C111.571 22.9069 111.352 23.8057 111.352 24.826C111.352 25.8219 111.583 26.7207 112.045 27.5223C112.506 28.2997 113.125 28.9312 113.903 29.4171C114.68 29.8786 115.53 30.1094 116.453 30.1094Z" fill="white"/>
<path d="M25.4737 19.5008L16 26.6606V19.3303V12L25.4737 19.5008Z" fill="#40467C"/>
</svg>
